<?xml version="1.0" encoding="UTF-8"?>
<svg version="1.1" xmlns="http://www.w3.org/2000/svg" width="300" height="80">
<path d="M0 0 C92.4 0 184.8 0 280 0 C280 24.09 280 48.18 280 73 C259.87 73 239.74 73 219 73 C219 71.35 219 69.7 219 68 C237.81 68 256.62 68 276 68 C276 46.88 276 25.76 276 4 C186.24 4 96.48 4 4 4 C4 25.12 4 46.24 4 68 C24.13 68 44.26 68 65 68 C65.33 69.32 65.66 70.64 66 72 C65 73 65 73 62.41209412 73.12025452 C61.25959671 73.11803391 60.1070993 73.11581329 58.91967773 73.11352539 C57.60012085 73.11340454 56.28056396 73.11328369 54.92102051 73.11315918 C53.50854445 73.10812269 52.09606885 73.10295606 50.68359375 73.09765625 C49.40681763 73.09664917 48.1300415 73.09564209 46.8145752 73.09460449 C42.02220773 73.08935266 37.22985301 73.07539156 32.4375 73.0625 C21.733125 73.041875 11.02875 73.02125 0 73 C0 48.91 0 24.82 0 0 Z " fill="#000000" transform="translate(10,2)"/>
<path d="M0 0 C3.91652632 -0.08714316 7.83280311 -0.14043985 11.75 -0.1875 C12.86117187 -0.21263672 13.97234375 -0.23777344 15.1171875 -0.26367188 C16.18710937 -0.27333984 17.25703125 -0.28300781 18.359375 -0.29296875 C19.34389648 -0.3086792 20.32841797 -0.32438965 21.34277344 -0.34057617 C24.39282409 0.05034818 25.74113723 0.96842944 28 3 C28.33 2.01 28.66 1.02 29 0 C33.0829596 -0.14518182 37.16525641 -0.23403347 41.25 -0.3125 C42.40886719 -0.35439453 43.56773438 -0.39628906 44.76171875 -0.43945312 C53.32511267 -0.56320159 53.32511267 -0.56320159 56.76171875 2.3046875 C58.41547375 5.90434349 58.61955694 8.07613937 58 12 C56.49836122 14.17059412 54.75740473 16.01978643 53 18 C53.77085938 18.80824219 54.54171875 19.61648437 55.3359375 20.44921875 C56.3493314 21.52829559 57.36233158 22.60774229 58.375 23.6875 C58.88289063 24.21794922 59.39078125 24.74839844 59.9140625 25.29492188 C62.77147457 28.35912035 64.74057571 30.9106645 66 35 C62.36988978 35.64405181 60.49137077 35.94568608 57 35 C53.12457919 31.73564139 49.96616461 28.12414537 47 24 C47 23.34 47 22.68 47 22 C45.68 21.34 44.36 20.68 43 20 C43 19.34 43 18.68 43 18 C41.02 18 39.04 18 37 18 C37 21.3 37 24.6 37 28 C34.36 28 31.72 28 29 28 C28.67 23.05 28.34 18.1 28 13 C26.68 14.32 25.36 15.64 24 17 C20.93466836 18.53266582 17.73245728 18.10276471 14.375 18.0625 C13.66859375 18.05798828 12.9621875 18.05347656 12.234375 18.04882812 C10.48954725 18.03703875 8.744763 18.01910324 7 18 C7 21.3 7 24.6 7 28 C4.69 28 2.38 28 0 28 C0 22.06 0 16.12 0 10 C6.93 10 13.86 10 21 10 C21 9.01 21 8.02 21 7 C14.07 7 7.14 7 0 7 C0 4.69 0 2.38 0 0 Z M29 7 C29 7.99 29 8.98 29 10 C35.93 10 42.86 10 50 10 C50 9.01 50 8.02 50 7 C43.07 7 36.14 7 29 7 Z " fill="#45637F" transform="translate(28,24)"/>
<path d="M0 0 C2.64 0 5.28 0 8 0 C8 3.3 8 6.6 8 10 C12.62 10 17.24 10 22 10 C22 6.7 22 3.4 22 0 C24.31 0 26.62 0 29 0 C29 9.24 29 18.48 29 28 C26.69 28 24.38 28 22 28 C22 24.7 22 21.4 22 18 C17.38 18 12.76 18 8 18 C8 21.3 8 24.6 8 28 C5.36 28 2.72 28 0 28 C0 18.76 0 9.52 0 0 Z " fill="#000000" transform="translate(240,24)"/>
<path d="M0 0 C3.95428578 1.77705467 6.17679526 4.19757994 7.96875 8.12109375 C9.37368866 12.94638902 9.10635633 16.69300948 7.0625 21.2734375 C5.06584025 24.51800959 2.34418262 26.32790869 -1 28 C-6.0111158 28.54978069 -9.89696493 28.56154513 -14.4375 26.25 C-17.65429357 23.42549832 -19.72171187 21.52950611 -20.50390625 17.23046875 C-20.68156881 8.00385982 -20.68156881 8.00385982 -17.125 3.8125 C-12.19754767 -1.07924615 -6.67253828 -0.86921955 0 0 Z M-11.375 8.625 C-13.19887378 10.94844013 -13.19887378 10.94844013 -13.5625 14 C-13.23496998 17.14627033 -13.23496998 17.14627033 -10.875 19.4375 C-8.08774307 21.24870485 -8.08774307 21.24870485 -4.875 21 C-1.97810707 20.1925204 -1.97810707 20.1925204 -0.0625 18.3125 C1.40109489 15.12702876 0.98928968 13.32118677 0 10 C-1.06345052 8.01970318 -1.06345052 8.01970318 -3 7 C-6.63031776 6.45931438 -8.32214079 6.53620159 -11.375 8.625 Z " fill="#000000" transform="translate(107,24)"/>
<path d="M0 0 C3.91652632 -0.08714316 7.83280311 -0.14043985 11.75 -0.1875 C12.86117187 -0.21263672 13.97234375 -0.23777344 15.1171875 -0.26367188 C16.18710937 -0.27333984 17.25703125 -0.28300781 18.359375 -0.29296875 C19.34389648 -0.3086792 20.32841797 -0.32438965 21.34277344 -0.34057617 C24.46965238 0.06019525 25.79252229 0.76946192 28 3 C29.06405688 7.39810175 29.53726987 9.69924137 27.8125 13.875 C25.82667515 16.20320845 24.85007981 16.94824073 22 18 C19.37573495 18.13958857 16.86707253 18.18931369 14.25 18.125 C13.20392578 18.11146484 13.20392578 18.11146484 12.13671875 18.09765625 C10.42433042 18.07419888 8.71211996 18.03833104 7 18 C7 21.3 7 24.6 7 28 C4.69 28 2.38 28 0 28 C0 22.06 0 16.12 0 10 C6.93 10 13.86 10 21 10 C21 9.01 21 8.02 21 7 C14.07 7 7.14 7 0 7 C0 4.69 0 2.38 0 0 Z " fill="#000001" transform="translate(28,24)"/>
<path d="M0 0 C3.91641711 -0.11618764 7.83239101 -0.18724654 11.75 -0.25 C13.41675781 -0.30027344 13.41675781 -0.30027344 15.1171875 -0.3515625 C16.18710938 -0.36445313 17.25703125 -0.37734375 18.359375 -0.390625 C19.34389648 -0.41157227 20.32841797 -0.43251953 21.34277344 -0.45410156 C24.7738617 0.13224759 25.92259142 1.25066636 28 4 C28.60618886 8.77373727 28.71591834 10.83971856 26.1875 14.9375 C22.36272323 18.5437181 18.85506526 18.10876207 13.8125 18.0625 C12.54019531 18.05347656 11.26789063 18.04445313 9.95703125 18.03515625 C8.49330078 18.01775391 8.49330078 18.01775391 7 18 C7 21.3 7 24.6 7 28 C4.69 28 2.38 28 0 28 C0 22.06 0 16.12 0 10 C9.9 9.505 9.9 9.505 20 9 C20 8.67 20 8.34 20 8 C13.4 7.67 6.8 7.34 0 7 C0 4.69 0 2.38 0 0 Z " fill="#000000" transform="translate(118,24)"/>
<path d="M0 0 C3.29275395 1.80778648 4.54748363 2.74687774 5.8125 6.25 C5.874375 6.8275 5.93625 7.405 6 8 C4.02 8.99 2.04 9.98 0 11 C-0.515625 10.484375 -1.03125 9.96875 -1.5625 9.4375 C-4.04936338 7.67665637 -4.04936338 7.67665637 -7.625 8.125 C-11.25935918 8.66730764 -11.25935918 8.66730764 -13 12 C-12.67873872 14.63434254 -12.18644952 16.62710097 -11 19 C-8.87423218 19.46651207 -8.87423218 19.46651207 -6.4375 19.625 C-5.61121094 19.69976562 -4.78492188 19.77453125 -3.93359375 19.8515625 C-3.29550781 19.90054688 -2.65742188 19.94953125 -2 20 C-1.67 19.01 -1.34 18.02 -1 17 C1.375 17.25 1.375 17.25 4 18 C5.3125 20.0625 5.3125 20.0625 6 22 C0.51825856 27.77805179 0.51825856 27.77805179 -4.3046875 28.203125 C-13.30683457 28.36729789 -13.30683457 28.36729789 -17 25 C-20.79212864 19.77301187 -21.71313709 16.41823378 -21 10 C-19.71955623 6.30094022 -18.36068771 4.3514393 -15.5625 1.625 C-10.377735 -0.73998053 -5.60854844 -0.78551099 0 0 Z " fill="#010102" transform="translate(232,24)"/>
<path d="M0 0 C9.57 0 19.14 0 29 0 C29 2.31 29 4.62 29 7 C25.37 7 21.74 7 18 7 C18 13.93 18 20.86 18 28 C15.69 28 13.38 28 11 28 C11 21.07 11 14.14 11 7 C7.7 7 4.4 7 1 7 C0.67 6.67 0.34 6.34 0 6 C0 4.02 0 2.04 0 0 Z " fill="#000000" transform="translate(152,24)"/>
<path d="M0 0 C9.24 0 18.48 0 28 0 C28 2.64 28 5.28 28 8 C18.76 8 9.52 8 0 8 C0 5.36 0 2.72 0 0 Z " fill="#466580" transform="translate(182,34)"/>
<path d="M0 0 C9.24 0 18.48 0 28 0 C28 2.31 28 4.62 28 7 C18.76 7 9.52 7 0 7 C0 4.69 0 2.38 0 0 Z " fill="#466581" transform="translate(182,45)"/>
<path d="M0 0 C9.24 0 18.48 0 28 0 C28 2.31 28 4.62 28 7 C18.76 7 9.52 7 0 7 C0 4.69 0 2.38 0 0 Z " fill="#466580" transform="translate(182,24)"/>
<path d="M0 0 C5 1 5 1 6.8125 3.0625 C7.204375 3.701875 7.59625 4.34125 8 5 C8.33 3.35 8.66 1.7 9 0 C9.99 0 10.98 0 12 0 C12 4.62 12 9.24 12 14 C7.70574125 12.92643531 7.25259529 12.4915227 5 9 C4.67 10.65 4.34 12.3 4 14 C2.68 13.67 1.36 13.34 0 13 C0 8.71 0 4.42 0 0 Z " fill="#000000" transform="translate(94,64)"/>
<path d="M0 0 C6.8359375 -0.1953125 6.8359375 -0.1953125 9 0 C11 2 11 2 11.1875 4.5 C11 7 11 7 10 9 C10.89363605 11.60931266 10.89363605 11.60931266 12 14 C10.35 13.67 8.7 13.34 7 13 C6.67 12.01 6.34 11.02 6 10 C5.34 10 4.68 10 4 10 C4 11.32 4 12.64 4 14 C2.68 13.67 1.36 13.34 0 13 C0 8.71 0 4.42 0 0 Z M4 3 C4 3.99 4 4.98 4 6 C4.99 6 5.98 6 7 6 C6.67 5.01 6.34 4.02 6 3 C5.34 3 4.68 3 4 3 Z " fill="#000000" transform="translate(170,64)"/>
<path d="M0 0 C0.66 1.32 1.32 2.64 2 4 C-1.01031744 4.93423645 -1.86650268 5.04449911 -5 4 C-5.33 4.99 -5.66 5.98 -6 7 C-5.67 7.66 -5.34 8.32 -5 9 C-4.34 9 -3.68 9 -3 9 C-3 8.01 -3 7.02 -3 6 C-1.35 6 0.3 6 2 6 C2 8.64 2 11.28 2 14 C-5.22891566 14.48192771 -5.22891566 14.48192771 -8.5 12.4375 C-10.56021138 9.08965651 -10.49125459 6.85985753 -10 3 C-7.7672032 -1.07157064 -4.21152194 -0.23838803 0 0 Z " fill="#000001" transform="translate(165,64)"/>
<path d="M0 0 C0.66 1.32 1.32 2.64 2 4 C-1 5 -1 5 -4 4 C-4.33 5.65 -4.66 7.3 -5 9 C-4.34 9 -3.68 9 -3 9 C-3 8.01 -3 7.02 -3 6 C-1.35 6 0.3 6 2 6 C2 8.64 2 11.28 2 14 C-5.24942792 14.60411899 -5.24942792 14.60411899 -8.5625 11.9375 C-10.42951635 8.12229269 -10.14487832 6.04523674 -9 2 C-5.5647952 -0.29013653 -4.014669 -0.17842973 0 0 Z " fill="#020202" transform="translate(119,64)"/>
<path d="M0 0 C1.32 0 2.64 0 4 0 C4 3.3 4 6.6 4 10 C4.99 9.67 5.98 9.34 7 9 C7.33 6.03 7.66 3.06 8 0 C9.32 0 10.64 0 12 0 C12.08114106 1.77007714 12.13925505 3.54122098 12.1875 5.3125 C12.22230469 6.29863281 12.25710937 7.28476563 12.29296875 8.30078125 C12 11 12 11 10.7109375 12.86328125 C9 14 9 14 5.4375 13.875 C2 13 2 13 0 10 C-0.1953125 7.51953125 -0.1953125 7.51953125 -0.125 4.8125 C-0.10695312 3.91144531 -0.08890625 3.01039062 -0.0703125 2.08203125 C-0.04710937 1.39496094 -0.02390625 0.70789063 0 0 Z " fill="#020202" transform="translate(199,64)"/>
<path d="M0 0 C3.3 0 6.6 0 10 0 C10 0.99 10 1.98 10 3 C8.02 3 6.04 3 4 3 C4 3.66 4 4.32 4 5 C5.65 5 7.3 5 9 5 C9 5.99 9 6.98 9 8 C7.35 8 5.7 8 4 8 C4 8.66 4 9.32 4 10 C5.98 10 7.96 10 10 10 C10 11.32 10 12.64 10 14 C8.52093108 14.02689216 7.04172517 14.04634621 5.5625 14.0625 C4.32693359 14.07990234 4.32693359 14.07990234 3.06640625 14.09765625 C1 14 1 14 0 13 C-0.07258946 10.81360547 -0.08373783 8.62499611 -0.0625 6.4375 C-0.05347656 5.23996094 -0.04445313 4.04242188 -0.03515625 2.80859375 C-0.02355469 1.88175781 -0.01195313 0.95492187 0 0 Z " fill="#000000" transform="translate(124,64)"/>
<path d="M0 0 C6.8359375 -0.1953125 6.8359375 -0.1953125 9 0 C9.66 0.66 10.32 1.32 11 2 C10.625 5.625 10.625 5.625 10 9 C8.02 9.33 6.04 9.66 4 10 C4 11.32 4 12.64 4 14 C2.68 13.67 1.36 13.34 0 13 C0 8.71 0 4.42 0 0 Z M4 3 C4 3.99 4 4.98 4 6 C4.99 6 5.98 6 7 6 C6.67 5.01 6.34 4.02 6 3 C5.34 3 4.68 3 4 3 Z " fill="#000000" transform="translate(214,64)"/>
<path d="M0 0 C1.32 0 2.64 0 4 0 C4.67260351 1.76858691 5.33788395 3.53996016 6 5.3125 C6.37125 6.29863281 6.7425 7.28476563 7.125 8.30078125 C8 11 8 11 8 14 C6.68 14 5.36 14 4 14 C3.67 13.34 3.34 12.68 3 12 C2.01 12 1.02 12 0 12 C-0.33 12.66 -0.66 13.32 -1 14 C-2.32 14 -3.64 14 -5 14 C-4.34580901 8.93001981 -2.1453591 4.58009223 0 0 Z M1 6 C2 8 2 8 2 8 Z " fill="#000000" transform="translate(84,64)"/>
<path d="M0 0 C1.9375 1.0625 1.9375 1.0625 3 3 C3.49891602 6.92005446 3.55253414 9.11594538 1.4375 12.5 C-1 14 -1 14 -4.5625 14 C-8 13 -8 13 -10 11.375 C-11.45331917 7.92336696 -10.92604949 5.57190516 -10 2 C-6.30513897 -0.46324069 -4.36706908 -0.38991688 0 0 Z M-6 3 C-8.23845015 4.82915641 -8.23845015 4.82915641 -8.3125 7.5 C-8.209375 8.325 -8.10625 9.15 -8 10 C-5.30844799 12.264384 -5.30844799 12.264384 -2.9375 11.75 C-0.80523025 11.07467282 -0.80523025 11.07467282 1 9 C0.67958603 6.39719432 0.67958603 6.39719432 0 4 C-2.90073181 3.32198966 -2.90073181 3.32198966 -6 3 Z " fill="#44617F" transform="translate(194,64)"/>
<path d="M0 0 C1.32 0 2.64 0 4 0 C4 3.3 4 6.6 4 10 C5.98 10 7.96 10 10 10 C10 11.32 10 12.64 10 14 C6.7 14 3.4 14 0 14 C0 9.38 0 4.76 0 0 Z " fill="#000000" transform="translate(137,64)"/>
</svg>
